<svg width="13" height="12" viewBox="0 0 13 12" fill="none" xmlns="http://www.w3.org/2000/svg">
<path fill-rule="evenodd" clip-rule="evenodd" d="M12 6.0001C12 6.35908 11.709 6.6501 11.35 6.6501H0.65C0.291015 6.6501 0 6.35908 0 6.0001V6.0001C0 5.64111 0.291014 5.3501 0.649999 5.3501H11.35C11.709 5.3501 12 5.64111 12 6.0001V6.0001Z" fill="black"/>
<path fill-rule="evenodd" clip-rule="evenodd" d="M9.19917 2.95811C8.60513 2.53588 7.95546 2.16715 7.33521 1.86716C7.01204 1.71085 6.85853 1.32999 6.99994 1.00003V1.00003C7.14136 0.670073 7.52405 0.516043 7.8478 0.671135C8.5394 1.00244 9.27341 1.41594 9.95232 1.89851C10.8222 2.51683 11.6434 3.27785 12.1476 4.16158C12.6644 5.06723 12.8535 6.11922 12.4 7.22231C11.9611 8.28979 10.9603 9.30479 9.33146 10.2706C9.03117 10.4487 8.70789 10.626 8.36064 10.8026C8.04066 10.9654 7.6528 10.8248 7.49994 10.5V10.5C7.34709 10.1752 7.48717 9.78923 7.8068 9.6258C8.1174 9.46699 8.40416 9.3091 8.66842 9.15241C10.1822 8.25482 10.9114 7.42435 11.1976 6.728C11.4693 6.06726 11.3787 5.43705 11.0185 4.80585C10.6458 4.15274 9.99286 3.52225 9.19917 2.95811Z" fill="black"/>
</svg>
