<svg width="61" height="93" viewBox="0 0 61 93" fill="none" xmlns="http://www.w3.org/2000/svg">
<g clip-path="url(#clip0_1_12)">
<path fill-rule="evenodd" clip-rule="evenodd" d="M22.9535 47.4308C21.1996 47.3113 19.447 47.1648 17.6962 46.9911C17.6727 47.1007 17.6183 47.21 17.5253 47.3113C12.5795 52.6672 10.5438 62.0265 11.8441 69.109C12.331 71.7483 12.9939 74.3693 13.6551 76.9835L13.6551 76.9835L13.6551 76.9835L13.6551 76.9836L13.6551 76.9836L13.6551 76.9836L13.6551 76.9836L13.6551 76.9836L13.6551 76.9836L13.6551 76.9837L13.6551 76.9837L13.6551 76.9837L13.6551 76.9837L13.6551 76.9837L13.6552 76.9837L13.6552 76.9838L13.6552 76.9838L13.6552 76.9838L13.6552 76.9838L13.6552 76.9838L13.6552 76.9839L13.6552 76.9839L13.6552 76.9839L13.6552 76.9839L13.6552 76.9839L13.6552 76.9839L13.6552 76.984L13.6552 76.984L13.6552 76.984L13.6552 76.984L13.6552 76.984L13.6552 76.984L13.6552 76.9841L13.6552 76.9841L13.6552 76.9841L13.6552 76.9841L13.6552 76.9841L13.6552 76.9841C13.9258 78.0538 14.196 79.1223 14.4538 80.1905C15.3638 83.9709 16.3222 87.7027 18.3601 91.049C19.9285 91.2067 21.4991 91.334 23.0715 91.4292C22.5607 88.8134 21.6966 86.3123 20.8315 83.8081L20.8315 83.808C20.2792 82.2093 19.7266 80.6095 19.2651 78.9778C18.2876 75.5154 17.7764 71.9133 17.7271 68.3156C17.631 61.0184 19.4615 53.8153 22.9535 47.4308ZM24.4366 47.5254C24.4258 47.5501 24.4134 47.575 24.3992 47.6C20.7089 54.1325 18.8525 61.5577 19.0857 69.073C19.2023 72.8735 19.8928 76.6019 21.0452 80.2176C21.382 81.2731 21.7433 82.3185 22.1042 83.3626C23.0165 86.0023 23.9261 88.6342 24.4306 91.4027C24.4369 91.4373 24.4409 91.4711 24.4427 91.504C25.4813 91.5544 26.5206 91.5906 27.5606 91.612C27.5572 91.5664 27.5584 91.5177 27.5648 91.4659C27.6589 90.7105 27.7699 89.9492 27.8814 89.1843C28.2858 86.4112 28.6971 83.5905 28.3316 80.8308C28.189 79.7524 28.0141 78.6927 27.8401 77.6381L27.8401 77.638C27.4671 75.3771 27.0979 73.1395 27.0582 70.7908C27.0097 67.9776 27.1951 65.167 27.3804 62.3587V62.3587V62.3587V62.3587V62.3587V62.3586V62.3586V62.3586V62.3586V62.3586V62.3585V62.3585V62.3585V62.3585V62.3585V62.3585V62.3584V62.3584V62.3584V62.3584V62.3584V62.3584V62.3583V62.3583V62.3583V62.3583V62.3583V62.3583V62.3582V62.3582V62.3582V62.3582V62.3582V62.3582V62.3581V62.3581V62.3581V62.3581V62.3581V62.358C27.6919 57.637 28.0029 52.9224 27.2016 48.2131C27.1642 47.9975 27.2192 47.8133 27.3247 47.6724C26.3617 47.6316 25.399 47.5825 24.4366 47.5254ZM30.5467 91.6326C29.9878 91.6365 29.4291 91.636 28.8706 91.6312C28.8891 91.5801 28.9026 91.525 28.91 91.4659C29.0035 90.7162 29.1129 89.961 29.2229 89.2024C29.63 86.3935 30.0439 83.5377 29.6768 80.7406C29.5347 79.6542 29.3633 78.5847 29.1928 77.5203L29.1927 77.5202C28.7929 75.0247 28.3975 72.5572 28.3944 69.9657C28.3913 67.416 28.5512 64.8727 28.7108 62.3328L28.7108 62.3327C29.0145 57.5028 29.3174 52.6847 28.4975 47.857C28.4887 47.806 28.4758 47.7593 28.4594 47.7168C29.7471 47.7629 31.0352 47.7944 32.3236 47.8113C34.6154 54.5295 34.8987 61.6092 35.1337 68.6492C35.3938 76.3809 35.0082 83.991 33.5733 91.601C33.5715 91.6105 33.5699 91.62 33.5685 91.6293C33.1545 91.6303 32.7438 91.63 32.3375 91.6297H32.3362C31.7285 91.6293 31.1308 91.6289 30.5467 91.6326ZM34.9329 91.6203C35.8483 91.6092 36.7736 91.5859 37.6972 91.5376C38.1022 89.5751 38.9137 87.7724 39.7259 85.9683L39.7259 85.9682C40.4286 84.4074 41.1317 82.8455 41.5727 81.1779C42.456 77.8263 42.411 74.2494 42.3671 70.7597C42.3569 69.945 42.3467 69.135 42.3484 68.3337C42.3505 67.414 42.3682 66.4859 42.3859 65.5539V65.5539C42.4432 62.5433 42.5012 59.4913 42.039 56.5445C41.761 54.7772 41.2453 53.0415 40.3037 51.5087C40.0236 51.0525 39.7145 50.6338 39.4089 50.2198C38.8492 49.4615 38.3013 48.7192 37.9648 47.7923C36.558 47.8203 35.1512 47.8308 33.7446 47.8241C35.9579 54.5403 36.2438 61.6224 36.4789 68.6492C36.7396 76.3826 36.3386 84.0065 34.9329 91.6203ZM44.4633 90.4928C42.7674 91.0068 40.9463 91.289 39.0946 91.4437C39.5292 89.6309 40.2853 87.9367 41.0417 86.2416C41.8406 84.4512 42.64 82.6598 43.0613 80.7271C43.7769 77.4549 43.7421 74.0466 43.7079 70.6868V70.6866V70.6865V70.6864V70.6863V70.6862V70.6861V70.686V70.6859V70.6858V70.6857V70.6856V70.6854V70.6853V70.6852V70.6851V70.685V70.6849V70.6848V70.6847V70.6845V70.6844V70.6843V70.6842V70.6841V70.684V70.6839V70.6838V70.6837V70.6836V70.6835V70.6834V70.6833V70.6832V70.6831V70.683V70.6829V70.6828C43.6999 69.8963 43.6919 69.1125 43.6936 68.3337C43.6956 67.455 43.7095 66.5718 43.7234 65.6863L43.7234 65.6854C43.7695 62.7459 43.816 59.7823 43.4335 56.8826C43.2138 55.2145 42.8371 53.5645 42.1197 52.0407C41.7684 51.2927 41.2739 50.6233 40.7809 49.9559L40.7809 49.9559C40.26 49.2509 39.7409 48.5483 39.3944 47.7579C41.1228 47.7091 42.851 47.634 44.5786 47.5327C47.1619 50.0641 48.4222 54.0188 49.3702 57.4415C50.3027 60.8066 50.0796 64.3815 49.8635 67.8452L49.8632 67.85C49.8466 68.1156 49.8301 68.3805 49.8142 68.6447C49.3613 76.1736 48.0968 83.6934 44.5052 90.4018C44.4888 90.4323 44.4748 90.4626 44.4633 90.4928ZM46.2938 89.8566C55.4875 87.4143 56.4472 75.0277 56.6253 67.1885C56.7841 60.2172 56.1828 51.3939 49.8525 47.1417C48.6726 47.2475 47.4921 47.341 46.3114 47.4223C48.3263 49.8424 49.3711 53.0264 50.3298 55.9853C51.5898 59.876 51.4149 63.8208 51.1997 67.8602C50.7979 75.4298 49.638 83.0155 46.2938 89.8566ZM12.4243 46.3857C13.6654 46.5478 14.9076 46.6961 16.1508 46.8308C11.5136 52.2155 9.48295 60.828 10.2927 67.7746C10.643 70.7847 11.4251 73.7784 12.1992 76.7419C12.4953 77.875 12.7901 79.0038 13.0593 80.1273C13.9507 83.8396 14.8681 87.5257 16.7025 90.871C16.2405 90.8182 15.7788 90.7629 15.3173 90.705C15.2749 90.6679 15.2249 90.6342 15.1668 90.6048C11.6782 88.8465 9.30624 83.7837 7.70996 80.3619C5.85361 76.372 4.63846 72.0395 4.38736 67.6349C4.01794 61.0941 5.83378 54.5226 9.75465 49.3627C9.72426 49.799 10.1109 50.273 10.5842 50.0948C10.7101 50.2496 10.8965 50.354 11.0953 50.3365C11.4316 50.3095 11.7186 50.2283 12.019 50.084C12.3463 49.9263 12.4315 49.4529 12.2612 49.1598C12.1098 48.9005 11.8425 48.803 11.5784 48.8428C11.6939 48.5543 11.5279 48.1755 11.2747 48.0283C11.1563 47.96 11.0357 47.9342 10.9195 47.9423C11.3957 47.404 11.8973 46.8845 12.4243 46.3857ZM49.4908 45.8213C37.0345 46.9116 24.5239 46.6345 12.1266 44.9941C11.7878 44.9493 11.5844 45.137 11.5157 45.3862C5.30217 51.2373 2.40864 59.9197 3.09599 68.3878C3.45022 72.7834 4.68778 77.0573 6.54862 81.0426C8.24355 84.6763 10.7411 89.8834 14.4897 91.7724C14.5308 91.7931 14.5717 91.8093 14.6121 91.8215C14.7153 91.9243 14.8539 91.9982 15.0278 92.0203C20.4623 92.7146 25.9327 93.0527 31.4121 92.9761C31.9827 92.9681 32.5655 92.964 33.1571 92.9598C37.5631 92.9289 42.4575 92.8946 46.4422 91.2133C56.2441 88.8059 57.6521 76.3855 57.948 68.0271C58.2176 60.3183 57.5508 50.6609 50.5352 45.977C50.4662 45.8878 50.3701 45.8202 50.2465 45.7894L50.2222 45.774C49.9458 45.6012 49.6783 45.6583 49.4908 45.8213ZM16.4671 50.7874C16.3281 51.1435 16.1756 51.4952 16.0097 51.8423C15.799 52.2796 16.0456 52.8792 16.5926 52.8612C16.7846 52.8545 16.957 52.8086 17.1157 52.7319C17.1979 52.8683 17.3272 52.9752 17.4984 53.0235C17.8302 53.1136 18.2562 52.9108 18.3279 52.5501C18.3544 52.413 18.3818 52.276 18.4092 52.1385L18.4092 52.1384L18.4093 52.1382L18.4093 52.1381L18.4093 52.1379C18.4424 51.9726 18.4755 51.8067 18.5073 51.6394C18.597 51.1796 18.3145 50.8279 17.8571 50.7828C17.8261 50.7798 17.7954 50.7785 17.7649 50.7786C17.6926 50.5603 17.5036 50.3722 17.2921 50.314C16.9155 50.2103 16.6016 50.4447 16.4671 50.7874ZM16.5254 51.5312C16.5301 51.5265 16.5348 51.5223 16.5396 51.5182L16.5406 51.5179L16.5254 51.5312ZM17.8731 52.1175C17.8679 52.1203 17.8616 52.1224 17.8554 52.1241C17.8841 52.0967 17.8813 52.1047 17.8731 52.1175ZM12.9472 60.0114C13.01 59.6372 13.0728 59.2585 13.1355 58.8798C13.1938 58.5191 13.6422 58.3208 13.9606 58.4064C14.1073 58.4468 14.22 58.5276 14.2995 58.6324C14.4185 58.6041 14.5444 58.6036 14.678 58.6408C14.925 58.7097 15.0691 58.8541 15.148 59.0388C15.325 59.028 15.5131 59.088 15.6779 59.2224C15.9918 59.4794 16.0815 59.8987 15.9828 60.2819C15.8906 60.6432 15.599 60.7834 15.3132 60.7593C15.1612 60.9088 14.984 61.0343 14.7811 61.1294C14.453 61.2781 13.9568 61.1731 13.8076 60.8333C13.6252 60.8879 13.415 60.8659 13.2566 60.7733C12.9786 60.611 12.8979 60.3134 12.9472 60.0114ZM12.5571 67.0263C12.5806 67.3046 12.6052 67.583 12.6299 67.8607L12.6299 67.8608L12.6299 67.8608L12.6299 67.8608L12.6299 67.8608L12.6299 67.8608C12.6523 68.1138 12.6747 68.3663 12.6961 68.6177C12.7545 69.2711 13.522 69.4899 13.8851 69.0471C14.1017 69.2003 14.4334 69.202 14.6601 69.1001C14.8305 69.0234 14.9695 68.8747 15.0591 68.7124L15.0691 68.6939C15.3162 68.6428 15.5538 68.4713 15.5882 68.2164C15.6286 67.9234 15.6062 67.6574 15.3909 67.4365C15.2116 67.2562 14.9381 67.1705 14.687 67.1976L14.6859 67.1977C14.6746 67.1676 14.663 67.1375 14.6511 67.1074C14.5004 66.7349 14.121 66.5481 13.7932 66.6491C13.6774 66.4629 13.4845 66.3365 13.2387 66.3365C12.8934 66.35 12.5257 66.6611 12.5571 67.0263ZM15.2878 78.4233C14.6107 78.0266 14.2206 77.3458 14.1758 76.5659C14.136 75.8646 15.002 75.7344 15.3631 76.1586C15.6088 75.8525 16.0726 75.682 16.3729 76.0519C16.4009 76.0855 16.4291 76.1187 16.4578 76.1514C16.6547 76.1114 16.8742 76.166 17.0724 76.3224C17.189 76.4171 17.2832 76.5388 17.3415 76.6741C17.4849 77.0122 17.4446 77.3954 17.0993 77.5983C17.0535 77.6253 17.0022 77.6461 16.9477 77.6604C16.7749 77.8005 16.5259 77.8303 16.303 77.7647C16.3021 77.7887 16.3015 77.8129 16.3012 77.8372C16.2922 78.3512 15.7362 78.6803 15.2878 78.4233ZM16.9469 85.8394C17.1038 86.2451 17.2921 86.6193 17.5477 86.9755C17.8838 87.4386 18.4996 87.3679 18.7232 86.9222C18.8259 86.9975 18.94 87.0569 19.0678 87.0927C19.2785 87.1468 19.5251 87.1198 19.709 87.0025C19.7908 86.9477 19.8563 86.8866 19.9095 86.8125C20.3666 86.9372 20.945 86.5908 20.7537 86.0107C20.5654 85.4427 20.0184 85.073 19.422 85.2984C19.34 85.3305 19.2616 85.3724 19.1892 85.4228C18.9024 85.1676 18.459 85.053 18.1172 85.1767C18.0954 85.1844 18.0743 85.1928 18.0541 85.2016C17.5814 84.7929 16.6753 85.1472 16.9469 85.8394ZM22.9823 52.3246C23.2468 51.7701 23.6504 51.3373 24.1346 50.9721C24.4306 50.7557 24.8879 50.9271 25.0538 51.2111C25.1173 51.3199 25.1451 51.4319 25.1438 51.5411C25.2242 51.6377 25.2828 51.755 25.3139 51.8873C25.3201 51.9156 25.3252 51.9441 25.329 51.9727C25.4106 52.0098 25.4862 52.0601 25.5516 52.1218C25.8251 52.3787 25.8654 52.7439 25.6906 53.0685C25.4941 53.4397 25.123 53.4733 24.8365 53.3228C24.8168 53.3246 24.7966 53.3255 24.7758 53.3255C24.6906 53.3255 24.5875 53.3165 24.5068 53.2939C24.3703 53.2588 24.2428 53.1717 24.145 53.0631L24.0405 53.1451C23.4396 53.614 22.637 53.046 22.9823 52.3246ZM21.318 59.486L21.318 59.4865L21.3178 59.4872L21.3177 59.4875L21.3177 59.4878L21.3176 59.4884L21.3164 59.4943L21.3157 59.4976C21.2677 59.7343 21.2197 59.9716 21.1707 60.2097C21.0317 60.8994 21.7761 61.2962 22.2962 60.8679C22.3124 60.8545 22.3284 60.8407 22.3442 60.8266C22.3591 60.8393 22.3745 60.8516 22.3904 60.8634C22.5473 60.9806 22.7312 61.0437 22.9284 61.0392C22.9954 61.0367 23.0596 61.0259 23.1218 61.0077C23.5257 61.5749 24.5894 61.2163 24.3229 60.4621C24.1974 60.106 24.0136 59.7769 23.6683 59.6011C23.5297 59.5279 23.3643 59.4951 23.2053 59.5048C23.1832 59.4544 23.158 59.406 23.1302 59.3621C23.0403 59.2203 22.9187 59.105 22.7768 59.0299L22.7939 58.9473C22.9733 58.0908 21.6774 57.7301 21.5026 58.5822C21.4405 58.8815 21.3799 59.1809 21.3191 59.481L21.3189 59.4818L21.3188 59.4822L21.3187 59.4827L21.3186 59.4831L21.3186 59.4835L21.3185 59.4839L21.3184 59.4843L21.3183 59.4848L21.3182 59.4852L21.3181 59.4856L21.318 59.486ZM20.7313 67.6845C20.7537 66.9497 20.8434 66.2193 20.9824 65.4935C21.1483 64.6414 22.4442 65.0021 22.2783 65.8496C22.2519 65.9872 22.2281 66.1247 22.2068 66.2623C22.4544 66.3039 22.6437 66.436 22.7839 66.6177C23.252 66.525 23.7182 66.7058 23.9328 67.2923C24.0584 67.6394 23.7894 68.0362 23.462 68.1263C23.2598 68.1827 23.0695 68.1392 22.9178 68.0328L22.9105 68.0407C22.6301 68.3284 22.2547 68.277 22.0101 68.0556C21.9343 68.1385 21.8467 68.21 21.7447 68.2706C21.3142 68.5231 20.7134 68.1985 20.7313 67.6845ZM21.6505 73.2162C21.803 73.8203 21.9868 74.4109 22.2021 74.9925C22.3769 75.4659 22.9374 75.6642 23.3275 75.29C23.462 75.1584 23.5629 75.0099 23.6282 74.8379C23.6798 74.8575 23.7349 74.8716 23.7939 74.8798C23.9956 74.9068 24.1884 74.8572 24.3588 74.74C24.3695 74.7324 24.38 74.7246 24.3904 74.7167C24.7595 74.7725 25.1809 74.5578 25.1884 74.0728C25.1973 73.6175 24.8835 73.2613 24.4485 73.1711C24.2735 73.1339 24.0984 73.1526 23.9405 73.2233C23.7006 73.0599 23.4086 73.0275 23.1302 73.126C23.0967 73.1379 23.0643 73.1515 23.033 73.1669C23.0047 73.0633 22.9773 72.9595 22.9509 72.8555C22.7312 72.017 21.4353 72.3732 21.6505 73.2162ZM23.7246 74.3303L23.7201 74.3316L23.7202 74.3272C23.7214 74.3292 23.7229 74.3304 23.7246 74.3303ZM23.7246 74.3303C23.7252 74.3303 23.7259 74.3301 23.7266 74.3298L23.7266 74.3298L23.7246 74.3303ZM23.2603 81.7324C22.8791 81.0832 22.5697 80.3935 22.3276 79.6766C22.0496 78.8516 23.3499 78.5 23.619 79.3205C23.7005 79.5609 23.791 79.795 23.891 80.0244C23.9076 80.0176 23.9246 80.0114 23.9418 80.0057C24.1795 79.9246 24.444 79.9516 24.6637 80.0779C24.711 80.1046 24.7952 80.1587 24.8549 80.2144C25.3137 79.8137 26.2098 80.1749 25.9551 80.8668C25.7892 81.3222 25.4439 81.6558 24.9417 81.6919C24.7867 81.7046 24.6271 81.6881 24.4789 81.6393C24.4614 81.6708 24.4423 81.7018 24.4216 81.7324C24.1391 82.1427 23.5338 82.1968 23.2603 81.7324ZM24.0988 87.3903C24.1032 87.7645 24.157 88.1387 24.2736 88.4904C24.3588 88.7473 24.5606 88.9367 24.8341 88.9728C25.0433 88.9995 25.2976 88.9225 25.4384 88.75C25.5983 88.8803 25.8108 88.9376 26.0313 88.8781C26.3631 88.7879 26.6187 88.3912 26.5021 88.044C26.4765 87.9698 26.4515 87.8892 26.4255 87.8055C26.2555 87.2588 26.0443 86.5791 25.3677 86.669C25.2534 86.6843 25.1535 86.7231 25.0651 86.7792C24.974 86.7305 24.8712 86.7042 24.7624 86.7096C24.4081 86.7276 24.0943 87.0116 24.0988 87.3903ZM30.2238 88.6729L30.2776 88.2108C30.3225 87.8501 30.5556 87.5345 30.9547 87.5255C31.0293 87.5255 31.1064 87.5412 31.1806 87.5698C31.3756 87.4142 31.6121 87.3323 31.8874 87.4083C32.255 87.512 32.4658 87.8546 32.5465 88.2063C32.5644 88.2897 32.5812 88.3731 32.598 88.4564C32.6149 88.5399 32.6317 88.6233 32.6496 88.7067C32.6534 88.7266 32.6574 88.7463 32.6615 88.7659L32.6726 88.818L32.6786 88.8457L32.6787 88.8463L32.6788 88.8465L32.6868 88.8833L32.6948 88.9209C32.9542 89.1077 33.0997 89.5384 32.8918 89.8157C32.69 90.0862 32.4075 90.2621 32.0622 90.1674C31.838 90.1043 31.6452 89.933 31.5286 89.7346C31.4824 89.6537 31.4506 89.5637 31.4262 89.4702L31.421 89.4776C31.2506 89.7256 30.9681 89.8744 30.6632 89.7887C30.4032 89.7166 30.1341 89.4235 30.17 89.135L30.2238 88.6729ZM30.9233 75.8626C30.7574 76.5839 30.6767 77.3232 30.6901 78.0626C30.6991 78.6983 31.6318 79.0274 31.9457 78.4052C32.0129 78.2699 32.0802 78.1358 32.1475 78.0016L32.184 77.9287C32.3942 78.1378 32.7367 78.2174 32.9994 78.0446C33.0308 78.0243 33.0622 78.0029 33.0936 77.9814C33.125 77.96 33.1563 77.9386 33.1877 77.9183C33.6681 77.5983 33.5252 76.9669 33.1616 76.7296L33.0532 76.3224C32.977 76.0384 32.699 75.822 32.403 75.8265C32.3344 75.8278 32.2691 75.8352 32.2069 75.8481C32.0131 75.2893 31.0842 75.1553 30.9233 75.8626ZM29.6857 66.5416C29.6712 66.2767 29.6566 66.0119 29.6409 65.7459C29.5972 64.9753 30.6472 64.8907 30.9254 65.4857C31.1544 65.3894 31.4255 65.42 31.6214 65.5865C31.825 65.4295 32.0946 65.3711 32.3313 65.5475C32.5734 65.7278 32.6945 65.8946 32.8111 66.1696C32.9501 66.5123 32.6541 66.918 32.3402 67.0037C32.3167 67.01 32.2935 67.0151 32.2706 67.0189C32.1684 67.1621 32.0511 67.2953 31.9143 67.4184C31.6639 67.647 31.3365 67.6532 31.0952 67.5062L30.9861 67.6799C30.6184 68.2615 29.7665 68.0045 29.7306 67.3373C29.7149 67.0713 29.7003 66.8064 29.6857 66.5416ZM30.0041 56.8059C29.9637 57.1485 29.9458 57.4912 29.9548 57.8338C29.9682 58.3027 30.5332 58.7355 30.9682 58.4199C31.0133 58.3872 31.055 58.3536 31.0934 58.3186C31.3509 58.4632 31.6655 58.4654 31.9322 58.3117C32.2506 58.1313 32.3537 57.6985 32.1743 57.3875C32.0895 57.2434 31.9593 57.1431 31.8127 57.0929C31.7651 56.9883 31.7083 56.8903 31.6273 56.8014C31.5417 56.7118 31.4377 56.64 31.3243 56.5916C31.2329 56.3311 30.9381 56.1235 30.6767 56.1342C30.2776 56.1522 30.0534 56.4317 30.0041 56.8059ZM31.4731 57.56C31.4744 57.5602 31.4718 57.5661 31.461 57.5775C31.4663 57.5657 31.4717 57.5599 31.4731 57.56ZM29.7934 51.3147C29.5288 50.8774 29.466 50.368 29.5916 49.8721C29.6857 49.5024 30.0714 49.3175 30.4166 49.3897C30.6179 49.4377 30.7684 49.5866 30.8466 49.7686C31.2729 49.7688 31.6863 50.0325 31.7887 50.4672C31.8739 50.8278 31.6766 51.202 31.3179 51.3012C31.1975 51.3342 31.0705 51.3299 30.9525 51.2952C30.6942 51.7092 30.0771 51.7956 29.7934 51.3147ZM31.0303 51.1413C31.0295 51.1436 31.0314 51.1377 31.0384 51.1165L31.0303 51.1413ZM31.0645 51.0447C31.0725 51.0292 31.0785 51.0244 31.0795 51.0258C31.0806 51.0273 31.0766 51.035 31.0645 51.0447ZM30.4945 50.8513C30.4923 50.8436 30.4902 50.8358 30.4884 50.8278C30.4903 50.8357 30.4923 50.8435 30.4945 50.8513ZM5.90294 57.6039C6.0823 57.0088 6.30201 56.4318 6.55759 55.8682C6.70556 55.5346 7.18983 55.458 7.48577 55.6338C7.82207 55.8322 7.87587 56.2244 7.7279 56.558C7.71115 56.5953 7.69464 56.6327 7.67836 56.6702C7.82412 56.7183 7.95487 56.8028 8.0642 56.9187C8.08726 56.9442 8.10855 56.9712 8.12806 56.9995C8.17246 57.0132 8.21441 57.0314 8.25252 57.0539C8.5933 57.2523 8.63814 57.6445 8.49466 57.9781C8.33772 58.3478 7.87139 58.4876 7.50819 58.3884C7.42778 58.3658 7.34815 58.3276 7.27515 58.2779C7.25813 58.2907 7.24023 58.3035 7.22122 58.3162C6.97012 58.4785 6.66073 58.5417 6.37375 58.438C6.03746 58.3162 5.79084 57.9736 5.90294 57.6039ZM5.06892 63.8434C4.92544 64.6188 4.92544 65.3717 5.07789 66.1471C5.15412 66.5303 5.56664 66.6746 5.90742 66.6205C6.09571 66.5904 6.27175 66.4864 6.40826 66.3476C6.70746 66.5483 6.9802 66.5343 7.30192 66.3861C7.63374 66.2373 7.71445 65.7504 7.54406 65.4619C7.46298 65.3211 7.34933 65.2297 7.22055 65.1813L7.21225 65.1643C7.17189 65.0877 7.12705 65.011 7.06428 64.9479C6.87595 64.745 6.61588 64.6504 6.34236 64.6774C6.33072 64.6785 6.31914 64.6799 6.30763 64.6814C6.31865 64.52 6.33916 64.3592 6.36926 64.1995C6.43652 63.8389 6.27062 63.4692 5.89845 63.3655C5.56664 63.2798 5.13618 63.4827 5.06892 63.8434ZM7.28847 65.3356L7.28134 65.3314C7.28533 65.3432 7.28921 65.3551 7.29296 65.3672C7.31538 65.4348 7.31538 65.4258 7.28847 65.3356ZM6.30873 74.1719L6.30844 74.1713C6.2155 73.9821 6.12255 73.793 6.02849 73.6038C5.64826 72.8348 6.77203 72.1578 7.1818 72.891C7.38493 72.7582 7.63396 72.7163 7.87139 72.7833C7.9076 72.7933 7.94508 72.8107 7.98252 72.8324C8.13855 72.7363 8.32274 72.6896 8.54398 72.7112C8.93856 72.7518 9.3197 73.0538 9.38247 73.4596C9.43628 73.8248 9.29728 74.1854 8.91166 74.2936C8.76291 74.3331 8.58655 74.3123 8.43434 74.243C8.33644 74.3202 8.21749 74.3703 8.03281 74.3703C8.0182 74.3703 8.00401 74.3699 7.99021 74.3691C7.91301 74.6359 7.74798 74.8494 7.50819 74.9834C7.20776 75.1502 6.75489 75.0736 6.58898 74.7399C6.49492 74.5508 6.40197 74.3616 6.30903 74.1725L6.30873 74.1719ZM8.03657 73.8951C8.03923 73.8699 8.04546 73.8609 8.0479 73.8627C8.05035 73.8645 8.04902 73.8771 8.03657 73.8951ZM10.1806 83.6484C10.1582 84.23 10.759 84.5591 11.2657 84.4013C11.4577 84.3405 11.6074 84.2203 11.7192 84.0652C12.0087 84.1457 12.3335 84.0332 12.4898 83.7611C12.6692 83.45 12.5661 83.0127 12.2477 82.8369C11.9159 82.652 11.5392 82.5438 11.1716 82.6971C11.0248 82.7604 10.8971 82.8565 10.797 82.9811C10.4469 83.0206 10.1933 83.2901 10.1806 83.6484ZM35.4297 51.3058C35.2548 50.9316 35.1158 50.5529 35.0351 50.1472C34.9678 49.7865 35.1337 49.4168 35.4969 49.3221C35.82 49.2343 36.2366 49.4244 36.3204 49.7674C36.4293 49.7515 36.5416 49.7571 36.6493 49.7865C36.6917 49.798 36.7401 49.8172 36.7885 49.8412C36.9332 49.7424 37.1115 49.7029 37.3129 49.7594C37.6313 49.8496 37.9228 50.2554 37.7838 50.5935C37.6313 50.9587 37.3936 51.2201 36.9901 51.2878C36.8756 51.3042 36.7644 51.3057 36.6555 51.287C36.573 51.3953 36.4687 51.489 36.3489 51.5492C36.0485 51.698 35.5956 51.6529 35.4297 51.3058ZM36.8742 50.8786C36.8741 50.8792 36.8707 50.8856 36.864 50.8958C36.8709 50.8831 36.8742 50.878 36.8742 50.8786ZM35.5884 50.4692C35.5856 50.4759 35.5843 50.4786 35.5843 50.4782C35.5843 50.4779 35.5857 50.4745 35.5884 50.4692ZM36.7251 58.5284L36.7256 58.5306C36.7693 58.7446 36.813 58.9587 36.8556 59.1727C36.9615 59.6952 37.5048 59.7608 37.865 59.5271C38.0659 59.7425 38.4741 59.8136 38.6985 59.6416C38.8202 59.5498 38.924 59.4657 39.0119 59.3526C39.1 59.3932 39.1931 59.4162 39.2814 59.4162C39.6849 59.4162 39.9046 59.1051 39.954 58.7399C40.0302 58.1764 39.5056 57.6669 38.963 57.6669C38.8024 57.6669 38.651 57.7089 38.5162 57.7829C38.3716 57.5989 38.1257 57.5466 37.8983 57.5891L37.8869 57.5317C37.721 56.6751 36.4206 57.0358 36.5955 57.8879C36.638 58.1014 36.6815 58.3149 36.7251 58.5284ZM37.8644 69.2399C37.7748 68.9153 37.7344 68.5681 37.7748 68.23C37.8196 67.8648 38.0528 67.5538 38.4429 67.5493C38.5471 67.5493 38.6561 67.5799 38.7555 67.6333C38.8384 67.5967 38.9272 67.5722 39.0213 67.5628C39.3755 67.5267 39.7073 67.7025 39.8957 68.0091C39.9298 68.0654 39.9585 68.127 39.9835 68.1903C40.0903 68.216 40.1933 68.2723 40.2858 68.3653C40.5189 68.5997 40.5727 69.0956 40.2858 69.321C39.9309 69.5976 39.5189 69.649 39.1541 69.362C39.0737 69.4675 38.9752 69.5584 38.8509 69.6456C38.4877 69.8981 37.9765 69.6321 37.8644 69.2399ZM38.7615 68.755C38.7569 68.7405 38.7524 68.7262 38.7478 68.7124L38.7445 68.7036L38.7368 68.7004C38.7427 68.7199 38.751 68.7381 38.7615 68.755ZM37.4026 76.1917C37.3667 76.6335 37.4026 77.0663 37.4699 77.5036C37.5483 77.9988 38.2327 78.1362 38.5674 77.8287C38.8756 77.9958 39.298 77.8944 39.4697 77.5757C39.6625 77.2196 39.7253 76.8048 39.5908 76.4171C39.4738 76.0845 39.0702 75.7994 38.7193 75.9457C38.6208 75.6938 38.3498 75.496 38.0842 75.5064C37.6896 75.5335 37.434 75.813 37.4026 76.1917ZM36.443 86.3534C36.5462 85.8846 36.73 85.4337 36.9721 85.0235C37.1605 84.7079 37.5775 84.5952 37.8958 84.7845C38.1714 84.9429 38.2915 85.2924 38.1922 85.589C38.2931 85.8008 38.3108 86.0351 38.268 86.2903C38.2222 86.5565 37.9739 86.7341 37.7177 86.7758C37.574 87.0879 37.2677 87.2849 36.9139 87.1875C36.5507 87.0838 36.3623 86.7096 36.443 86.3534ZM41.8955 87.724C41.6175 88.0891 41.4875 88.54 41.4651 88.9953C41.4516 89.2613 41.6444 89.5183 41.8776 89.6129C42.1421 89.7211 42.3977 89.658 42.6129 89.4732C42.6928 89.4049 42.7726 89.3363 42.8524 89.2676C43.1628 89.4068 43.5269 89.2814 43.707 88.9908C43.9357 88.6256 43.9312 88.1613 43.7115 87.7916C43.5215 87.4744 43.171 87.3964 42.8685 87.523C42.8483 87.5073 42.8274 87.4931 42.8058 87.4805C42.4695 87.2776 42.1197 87.4309 41.8955 87.724ZM44.2272 80.4295C44.2316 79.902 44.2854 79.3836 44.3796 78.8696C44.4424 78.509 44.8773 78.3061 45.2091 78.3962C45.37 78.4411 45.4914 78.5355 45.5725 78.6575C45.7389 78.6185 45.9185 78.6447 46.079 78.7254C46.3162 78.8387 46.4623 79.0673 46.5087 79.32C46.6269 79.3581 46.7379 79.4219 46.8234 79.5053C47.1193 79.7983 47.1372 80.1906 47.0834 80.5783C47.0296 80.9434 46.5678 81.1373 46.2539 81.0516C46.0876 81.0044 45.9673 80.9082 45.8888 80.7849C45.7641 80.7789 45.6428 80.7401 45.5358 80.6773C45.5178 80.7085 45.5001 80.7401 45.4827 80.7721C45.1553 81.3627 44.2182 81.0922 44.2272 80.4295ZM45.2854 69.56C45.0926 70.0243 45.0881 70.5518 45.236 71.0297C45.4371 71.6714 46.269 71.6575 46.5142 71.0756C46.5637 71.0897 46.616 71.0999 46.6709 71.1063C46.8861 71.1334 47.0834 71.0612 47.2628 70.944C47.2747 70.9363 47.2864 70.9283 47.2979 70.9201C47.5532 70.9833 47.8391 70.9101 48.0161 70.6194C48.2851 70.1821 48.0609 69.6141 47.5901 69.4428C47.4553 69.3935 47.3191 69.3765 47.186 69.3919C46.998 69.0975 46.6126 68.9877 46.2868 69.1699C46.2308 69.1325 46.1711 69.1038 46.1104 69.0866C45.7248 68.9784 45.4244 69.2219 45.2854 69.56ZM44.781 58.2781C44.7619 58.0875 44.7428 57.897 44.7249 57.7075C44.689 57.3423 45.0612 57.0313 45.3975 57.0313C45.5794 57.0313 45.7301 57.0989 45.8428 57.2082C45.966 57.1999 46.0912 57.2228 46.2013 57.2772C46.282 57.2493 46.3682 57.2325 46.4602 57.2296C46.9086 57.2161 47.2763 57.4821 47.4108 57.9059C47.5938 58.4829 47.0278 58.829 46.5754 58.7143C46.4695 58.8195 46.3327 58.8873 46.1904 58.9127C46.1797 58.9508 46.1695 58.9894 46.1597 59.0284C46.0746 59.3576 45.7427 59.5514 45.4199 59.5108C45.0657 59.4703 44.8684 59.1817 44.837 58.8481C44.8191 58.6589 44.8 58.4686 44.781 58.2783V58.2782V58.2782V58.2781V58.2781ZM41.3933 50.1471C41.5637 50.5799 41.7744 50.9406 42.0704 51.3012C42.3615 51.6556 42.8719 51.5098 43.1039 51.1843C43.2602 51.1814 43.4138 51.1227 43.5411 50.9947C43.7788 50.7557 43.8236 50.2688 43.5411 50.0389C43.4604 49.9758 43.3842 49.9037 43.3214 49.827L43.3145 49.8184L43.3035 49.8C43.2721 49.7504 43.2452 49.7008 43.2183 49.6512C43.0793 49.3807 42.734 49.259 42.456 49.3356C42.4187 49.3458 42.3816 49.3602 42.3455 49.3784C42.2059 49.297 42.0383 49.2678 41.8552 49.3176C41.5413 49.4032 41.2588 49.8045 41.3933 50.1471ZM48.4959 50.4357C48.3479 50.1832 48.2403 49.9082 48.1865 49.6242C48.1278 49.287 48.265 48.942 48.5836 48.8174C48.6363 48.7147 48.7148 48.6274 48.8277 48.5602C49.016 48.4475 49.3164 48.4205 49.5048 48.5602C49.6079 48.6369 49.711 48.7146 49.8142 48.7924L49.8142 48.7925C49.9173 48.8702 50.0204 48.948 50.1235 49.0246C50.415 49.241 50.5675 49.6062 50.3657 49.9488C50.2442 50.1633 49.9643 50.3101 49.7086 50.2886C49.6407 50.505 49.4904 50.6802 49.2537 50.7468C48.9667 50.8279 48.6483 50.6927 48.4959 50.4357ZM51.1728 57.7391C51.2356 58.1133 51.3252 58.474 51.4463 58.8346C51.5853 59.2629 52.0337 59.4432 52.4328 59.2404C52.6664 59.1208 52.8195 58.9042 52.8884 58.6556C53.1607 58.7353 53.4391 58.7571 53.7779 58.6813C54.6209 58.492 54.2667 57.1846 53.4192 57.3784C53.2582 57.4163 53.1495 57.3516 53.0272 57.2787C52.9895 57.2562 52.9504 57.2329 52.9081 57.2116C52.7252 57.1223 52.5272 57.0927 52.3396 57.1263C52.1704 56.9367 51.8755 56.849 51.6391 56.9141C51.2625 57.0088 51.11 57.3784 51.1728 57.7391ZM52.9529 58.0953C52.9522 58.1095 52.9509 58.1234 52.9489 58.1369L52.9529 58.0953ZM52.6682 68.0361C52.6917 67.8648 52.7153 67.6935 52.7377 67.5222C52.787 67.157 53.2533 66.9632 53.5582 67.0488C53.8386 67.1275 53.9862 67.342 54.027 67.5919C54.2339 67.6398 54.4107 67.7976 54.5002 67.9943C54.5686 67.979 54.6379 67.9701 54.7061 67.9685C55.1814 67.955 55.5401 68.2074 55.6971 68.6538C55.9197 69.2939 55.1867 69.6491 54.7151 69.3949L54.6658 69.4337C54.4954 69.569 54.316 69.6772 54.1008 69.7267C53.7822 69.8027 53.4804 69.6585 53.3365 69.3987C53.184 69.4134 53.0247 69.3819 52.9081 69.312C52.6256 69.1497 52.5583 68.8521 52.5987 68.5501C52.6211 68.3788 52.6446 68.2074 52.6682 68.0361ZM50.8051 78.7208C50.7109 79.104 50.6168 79.4872 50.5271 79.8704C50.4419 80.222 50.6347 80.6097 50.9979 80.7044C51.3207 80.7901 51.6301 80.727 51.8947 80.5151C51.9492 80.4708 51.9946 80.4202 52.0355 80.3666C52.1881 80.4259 52.355 80.4315 52.518 80.3978C52.5376 80.3963 52.5573 80.3933 52.5768 80.389C52.9667 80.5561 53.541 80.3577 53.5672 79.7937C53.5851 79.4241 53.334 79.113 52.9888 79.0048C52.8657 78.967 52.7322 78.9554 52.6022 78.97C52.591 78.9549 52.5794 78.9408 52.5673 78.9281C52.4524 78.8127 52.2769 78.7379 52.1019 78.7167C51.9254 78.1501 50.9788 78.0069 50.8051 78.7208ZM51.515 79.7543L51.5136 79.7532C51.5066 79.711 51.5077 79.7099 51.515 79.7543ZM49.6751 87.0837L49.3792 86.8538C49.0922 86.6284 48.9353 86.2767 49.1371 85.9296C49.303 85.641 49.7693 85.4607 50.0563 85.6861L50.3522 85.9161C50.6437 86.137 50.7961 86.4931 50.5943 86.8403C50.4284 87.1288 49.9621 87.3091 49.6751 87.0837Z" fill="#727272"/>
</g>
<path fill-rule="evenodd" clip-rule="evenodd" d="M13.1776 33.9695C16.6226 36.6367 19.8557 40.0952 19.2966 44.7272C19.1974 45.5718 17.8446 45.5762 17.9438 44.7361C18.5191 39.9712 15.2447 37.3917 11.9276 34.7785C10.011 33.2685 8.08008 31.7474 6.86926 29.7869C6.71645 29.789 6.55793 29.7392 6.41388 29.6176C5.47597 28.8308 1.25089 26.1769 1.48085 29.5865C1.54849 30.6089 2.82458 31.8847 3.50998 32.5426C4.67189 33.6621 6.06686 34.4879 7.45636 35.3104C7.97038 35.6147 8.48366 35.9186 8.98411 36.2367C11.8429 38.0503 14.3275 40.433 14.5033 43.9626C14.5484 44.8205 13.1912 44.8161 13.1506 43.9626C12.9559 40.0959 9.82679 38.1922 6.65064 36.2599C4.16342 34.7467 1.64732 33.2159 0.488836 30.7111C-0.137938 29.3687 -0.408488 27.5061 1.22383 26.7548C2.58659 26.1265 4.23127 26.6521 5.61059 27.4412C4.90949 25.933 4.40388 24.2955 4.59669 22.7274C4.79058 21.1404 5.86376 19.2378 7.68998 19.1311C9.5703 19.0244 11.41 21.1715 12.384 22.4784C13.0018 23.3052 13.4482 24.1721 13.872 25.1011C14.093 25.7368 14.4086 26.3147 14.828 26.8437L15.0134 26.6778L15.014 26.6772C15.6863 26.0755 16.3551 25.4768 17.0239 24.8744C17.2408 24.1523 16.9675 22.7931 16.8106 22.013C16.7946 21.9335 16.7799 21.86 16.7669 21.7938C16.4954 20.4261 16.1057 19.102 15.7225 17.8001C14.5975 13.9775 13.5286 10.3455 15.6712 6.35975C16.7895 4.27934 18.1422 1.94111 20.3517 0.838679C21.8352 0.100759 24.1574 -0.441568 25.668 0.505281C27.386 1.58104 27.5754 4.01707 27.7017 5.81742C27.8865 8.41792 27.5168 11.0407 26.651 13.5033C26.4537 14.0652 26.2301 14.6376 26.0032 15.2184C24.8929 18.0614 23.7041 21.1051 25.1269 24.0876C25.1855 25.3679 26.0693 25.8168 27.7783 25.4434C27.8865 25.3145 27.9948 25.1867 28.103 25.0589C28.2112 24.9311 28.3194 24.8033 28.4276 24.6744C28.7176 24.2904 28.966 23.8778 29.2128 23.4679L29.2128 23.4679L29.2438 23.4164C29.4053 23.1477 29.5608 22.8753 29.7155 22.6024C29.668 22.4882 29.6518 22.3552 29.6812 22.2072C30.3019 19.1135 29.7197 16.115 29.1326 13.091C29.0245 12.5346 28.9163 11.9774 28.8154 11.4185C28.3735 8.98245 27.9091 6.29749 28.9642 3.95037C30.7318 0.025169 35.2996 -0.112635 37.96 3.01686C39.2181 4.50159 39.8629 6.44419 39.9215 8.36011C39.945 9.09795 39.8499 9.82071 39.7546 10.5456V10.5456V10.5456V10.5457V10.5457V10.5457V10.5458V10.5458V10.5458V10.5459V10.5459V10.5459V10.546V10.546V10.546V10.5461V10.5461V10.5462L39.7546 10.5463L39.7546 10.5463C39.7036 10.9348 39.6524 11.3239 39.6194 11.7163C39.6142 11.7783 39.6082 11.8445 39.602 11.9142V11.9143C39.5219 12.8103 39.3896 14.291 40.0297 14.8725C41.321 16.0455 42.0091 15.2471 42.6041 14.5568L42.6042 14.5567C42.7239 14.4178 42.8398 14.2833 42.9562 14.1701C44.0723 13.0826 44.8309 11.6426 45.5858 10.2094L45.5858 10.2094C46.1332 9.17029 46.6786 8.13481 47.3571 7.23989C48.5926 5.60847 50.1573 4.30155 52.0511 3.47917C55.203 2.11002 58.621 3.44805 58.9547 7.09764C59.3032 10.8979 56.1568 13.6399 53.3604 16.077C52.6469 16.6988 51.9563 17.3007 51.3522 17.8953L51.1447 18.0994C49.0426 20.1663 46.7203 22.4497 45.1882 24.9455C44.7553 25.6479 44.1917 27.0393 44.8906 27.8661C45.6121 28.7152 47.0595 28.5729 47.9749 28.3106C48.669 28.1128 49.3192 27.7816 49.9675 27.4513C50.3972 27.2323 50.8262 27.0138 51.2665 26.8348C53.7651 25.8184 58.6325 25.0015 57.8582 29.2017C61.8684 29.2017 61.7093 34.0932 59.2207 36.1033C57.9037 37.167 56.2704 37.6711 54.6389 38.1747C53.5501 38.5108 52.4621 38.8466 51.4695 39.3483C48.7459 40.7264 46.5229 42.7757 44.8365 45.2828C44.354 45.9941 43.1816 45.3273 43.6641 44.6116C45.4091 42.02 47.6863 39.8418 50.4729 38.357C51.8122 37.6458 53.2235 37.1701 54.671 36.7167C54.8065 36.6743 54.9429 36.6325 55.0797 36.5905C56.0904 36.2805 57.1245 35.9633 57.9942 35.3565C58.8014 34.8408 59.374 34.1296 59.7122 33.2272C60.0143 31.658 59.347 30.76 57.7011 30.5377C57.6053 30.5407 57.52 30.5271 57.4453 30.5006C56.0753 33.4495 52.2093 34.7553 49.1247 34.8141C49.0721 34.8151 49.0195 34.8159 48.9669 34.8164C48.9371 34.8261 48.9056 34.8343 48.8722 34.8407C43.628 35.8143 41.8469 41.0419 40.6114 45.5184C40.3859 46.3452 39.0783 45.994 39.3082 45.1627C40.3959 41.2194 41.9699 36.8251 45.5014 34.6858C43.3524 34.6266 41.324 34.8532 39.6554 36.7389C37.6534 39.0016 37.4234 42.0866 37.6894 44.9405C37.7706 45.7985 36.4134 45.7896 36.3367 44.9405C35.9579 40.8464 36.8913 36.1788 40.8955 34.0673C42.7835 33.0735 45.087 33.1761 47.3761 33.278C50.811 33.4309 54.2135 33.5823 56.1319 30.0265C57.4982 27.4971 55.1038 27.0437 53.0386 27.6216C52.2143 27.8515 51.4522 28.2181 50.6878 28.5858C50.4027 28.723 50.1172 28.8603 49.8281 28.9908C48.5069 29.5864 47.0956 30.0888 45.6301 29.7109C41.8198 28.7285 43.3079 25.1278 45.0259 22.9363C47.0828 20.3127 49.4376 18.0642 51.8095 15.7994C52.8536 14.8024 53.9011 13.8022 54.928 12.7654C56.921 10.7517 59.6942 5.6307 55.3654 4.32822C52.6328 3.50584 49.526 6.45308 48.1191 8.47124C47.6807 9.10055 47.2349 9.95822 46.7525 10.8863C45.4288 13.4329 43.8294 16.5097 41.3509 16.8551C37.7973 17.3521 38.2472 12.5868 38.4758 10.1655L38.4758 10.1652C38.5007 9.90131 38.523 9.66531 38.5372 9.46699C38.7356 6.70646 37.6218 3.2569 34.6863 2.28338C30.7453 0.976464 29.5053 5.56846 29.7353 8.44013C29.8675 10.098 30.1731 11.7136 30.4767 13.3186C30.9081 15.599 31.3354 17.858 31.2557 20.1869C31.6906 19.6668 32.2005 19.214 32.7559 18.848C32.7526 18.8266 32.7512 18.8039 32.7519 18.7799C32.8331 16.2505 32.292 14.2501 31.1917 11.9697C31.0069 11.5874 31.5886 11.2495 31.7779 11.6363C32.8805 13.921 33.4648 15.9483 33.4355 18.4549C35.5928 17.3726 38.2045 17.5665 39.7907 19.9979C42.5413 24.2076 37.8834 28.2084 34.6367 30.3333C33.8921 30.8208 33.0206 31.247 32.1304 31.6822L32.1303 31.6823L31.9242 31.7831C31.2837 36.2165 30.2623 40.5624 28.856 44.8249C28.7022 45.2953 28.2002 45.3763 27.8563 45.2028C27.5177 45.3737 27.0011 45.2978 26.8133 44.8427C25.1404 40.7753 23.7877 35.8143 27.8595 32.6582C28.7436 31.9752 29.7126 31.422 30.7023 30.8976C30.7963 30.5608 31.1071 30.4609 31.4001 30.5327L31.5814 30.4387L31.5814 30.4387C32.827 29.7935 34.0752 29.1468 35.2004 28.3018C36.4855 27.3371 37.8202 26.2436 38.6229 24.83C40.1019 22.2339 38.3974 18.451 34.9073 19.1933C32.8224 19.6354 31.8487 21.5036 30.8797 23.363C29.8996 25.2435 28.9243 27.115 26.8088 27.4927C23.2195 28.1328 23.0257 21.3093 23.3052 19.1622C23.511 17.5757 24.1146 16.1007 24.7192 14.6232C25.2276 13.3808 25.7368 12.1366 26.0107 10.8228C26.3309 9.30698 26.4571 7.75113 26.3805 6.20861C26.3444 5.47958 26.2813 4.70165 26.128 3.99484L26.1249 3.98078C25.7987 2.46514 25.7803 2.37968 24.171 1.88777C22.6559 1.42546 21.8307 1.42546 20.4599 2.29674C19.7971 2.7146 19.2064 3.36806 18.7419 3.97262C18.025 4.91058 17.3982 5.9819 16.8391 7.0221C15.1391 10.1916 15.6712 13.3611 16.6813 16.6551C16.7798 16.9764 16.9069 17.3553 17.0484 17.7769L17.0485 17.7771L17.0486 17.7773C18.105 20.9253 19.9607 26.4546 16.6722 28.1951C15.4322 28.853 14.2418 28.3018 13.4662 27.2705C12.9084 26.5312 12.5086 25.7437 12.1103 24.9592C11.5267 23.8096 10.9463 22.6666 9.87692 21.6916C6.75207 18.8466 5.4895 22.7229 6.21999 25.19C6.59425 26.457 7.23455 27.7461 7.90191 28.8885C9.03237 30.8139 10.6515 32.0448 12.3659 33.3483L12.3667 33.3489C12.6352 33.553 12.906 33.7589 13.1776 33.9695ZM27.0974 35.5076C27.7961 34.1873 29.0616 33.2918 30.4531 32.5332C29.8495 36.3223 28.9655 40.0473 27.7987 43.7109C26.7524 41.1274 25.7143 38.1216 27.0974 35.5076ZM18.291 13.2544C17.6192 10.5917 18.4579 7.67556 20.6313 5.88855C21.0687 5.5107 21.5647 5.22175 22.1103 5.02171C23.6118 5.33733 24.3108 6.12859 24.2071 7.3955C24.2341 8.13342 24.0898 8.86245 23.914 9.5737C23.6908 10.473 23.3616 11.3444 23.0326 12.2152C22.8363 12.7347 22.6401 13.2541 22.4665 13.779C21.2716 17.3974 19.5536 23.3141 22.7822 26.3947C23.0933 26.6926 23.5758 26.2214 23.2601 25.9235C20.4284 23.2252 21.8803 18.0376 22.8498 14.8058C23.047 14.1473 23.3237 13.438 23.6117 12.6998L23.6117 12.6998L23.6117 12.6998L23.6117 12.6997C24.5485 10.2985 25.6041 7.5926 24.428 5.34177C23.2286 3.048 20.478 4.91058 19.3101 6.25306C17.5831 8.24011 17.0014 10.9117 17.6372 13.4322C17.7454 13.8501 18.3947 13.6723 18.291 13.2544ZM34.8081 21.8605C33.7575 22.0027 32.9729 23.203 32.5851 24.052C32.4092 24.4432 31.823 24.1009 32.0034 23.7186C32.54 22.545 33.7755 21.0514 35.2545 21.1448C36.481 21.2203 37.7932 22.6428 37.6759 23.8697C37.5316 25.39 35.5386 26.897 34.3076 27.5949C33.8118 27.8742 33.2781 28.071 32.7442 28.2679C32.1902 28.4721 31.6361 28.6764 31.1241 28.973C29.8906 29.6852 28.9153 30.7454 27.967 31.7763L27.967 31.7763L27.9001 31.8491C27.607 32.1691 27.129 31.6935 27.4221 31.3779C29.0228 29.6486 30.5019 28.4395 32.7068 27.5638C34.0325 27.0348 35.5702 26.1724 36.3773 24.9366C37.234 23.6253 36.4089 21.6426 34.8081 21.8605ZM7.29767 24.8256C7.44647 23.6565 7.89288 23.2253 8.63238 23.5409C8.89391 23.5454 9.11035 23.6387 9.29072 23.821C9.64695 24.0521 9.88142 24.3944 10.0934 24.7545C10.3411 25.1762 10.5021 25.6435 10.6621 26.108L10.6621 26.108L10.6621 26.108L10.6621 26.108L10.6621 26.108L10.6621 26.108L10.6621 26.1081L10.6621 26.1081L10.6621 26.1081L10.6621 26.1081L10.6621 26.1081L10.6621 26.1081C10.7466 26.3536 10.8309 26.5982 10.9275 26.8349C11.2838 27.715 11.7527 28.4307 12.5599 28.9553C12.9251 29.1953 13.2633 28.6174 12.9026 28.3774C12.0023 27.7884 11.6247 26.7729 11.2492 25.7628C10.797 24.5469 10.3478 23.3387 8.99312 22.8919C7.50509 22.4029 6.00805 23.6743 6.71599 25.159C6.90086 25.5502 7.48255 25.2123 7.29767 24.8256ZM34.7991 5.52407C33.2299 4.1238 31.1782 5.65298 31.5299 7.57336C31.6066 7.99121 30.9573 8.16903 30.8761 7.74672C30.5064 5.72856 32.1432 3.6037 34.3707 4.39941C35.6062 4.84394 36.1924 6.1553 36.481 7.33331C36.7318 8.35693 36.5623 9.33972 36.3942 10.3141L36.3942 10.3142L36.3942 10.3143C36.2389 11.2144 36.0849 12.1074 36.2646 13.0189C36.3457 13.4412 35.6919 13.619 35.6107 13.1967C35.4376 12.3173 35.6018 11.4936 35.7676 10.6617C35.8868 10.0638 36.0068 9.46157 36.003 8.83138C35.9985 7.72005 35.6648 6.29755 34.7991 5.52407ZM52.0512 6.96433C50.6217 7.66224 49.3862 8.59131 48.7324 10.0627C48.5611 10.4539 47.9749 10.1161 48.1462 9.72931C48.9759 7.85784 54.9235 3.19472 55.911 7.10658C56.336 8.7979 54.7314 10.4011 53.5201 11.6112L53.52 11.6113L53.5194 11.6119L53.5192 11.6121L53.5191 11.6122C53.3172 11.8139 53.1263 12.0047 52.9575 12.1831C50.9915 14.2635 48.8857 16.2017 46.6717 18.0242C46.338 18.2999 45.8601 17.8287 46.1937 17.553C48.6422 15.5349 50.9599 13.3745 53.1063 11.0407C53.232 10.9039 53.3621 10.7664 53.4935 10.6277L53.4936 10.6277C53.9515 10.1441 54.4243 9.64481 54.7747 9.10252C55.7171 7.96452 55.2346 7.07991 53.3272 6.43979C52.8853 6.57759 52.4615 6.75096 52.0512 6.96433ZM44.9131 19.9757C42.7532 21.5404 41.4411 23.8208 41.1931 26.448C41.1525 26.8748 41.8289 26.8703 41.8694 26.448C42.0949 24.0742 43.3034 21.9627 45.2558 20.5491C45.603 20.3002 45.2649 19.7178 44.9131 19.9757ZM49.4259 30.9584C49.348 31.0051 49.2702 31.0517 49.1923 31.0979C48.8181 31.3246 48.4799 30.7467 48.8496 30.52C48.9393 30.4664 49.0368 30.4069 49.1408 30.3434L49.1409 30.3434C50.2188 29.6853 52.0027 28.5962 53.183 29.1597C53.9721 29.5376 54.0577 30.4533 53.697 31.1468C53.0477 32.3915 51.2034 32.9827 49.9003 33.1294C48.8779 33.2412 47.8711 33.1139 46.8683 32.9872C45.5182 32.8166 44.1754 32.6469 42.8119 33.0627C42.3925 33.1872 42.2167 32.5426 42.6315 32.4181C44.0637 31.9839 45.4488 32.1478 46.8652 32.3154L46.8654 32.3154C47.4065 32.3794 47.9522 32.444 48.5069 32.4759C49.3096 32.5248 51.8978 32.4893 52.3758 31.5602C52.6193 30.151 52.3758 29.5954 51.6498 29.8932C51.2621 29.9954 50.8923 30.1421 50.5406 30.3333C50.1579 30.5201 49.7906 30.74 49.4259 30.9584ZM39.1369 33.5783C35.6197 36.3922 34.3391 40.6597 33.9829 44.9627C33.9468 45.3895 34.6232 45.3895 34.6593 44.9627C35.002 40.8241 36.233 36.7523 39.6149 34.0495C39.9531 33.7783 39.4706 33.3116 39.1369 33.5783ZM23.215 40.4463C22.9851 38.4459 22.9535 36.4989 23.9996 34.7119C24.2206 34.3429 24.8023 34.6763 24.5858 35.0453C23.693 36.5656 23.6705 38.2148 23.8328 39.9173L23.8423 40.019C23.9925 41.6265 24.1543 43.3578 25.2847 44.6116C25.5733 44.9316 25.0954 45.4028 24.8068 45.0828C23.6299 43.7759 23.4089 42.1267 23.215 40.4463ZM5.34071 30.32C3.38373 30.3466 4.1593 32.3781 5.20543 33.1072C6.0578 33.7012 6.98679 34.1667 7.915 34.6319L7.91505 34.6319C8.41084 34.8804 8.9064 35.1288 9.38994 35.3965C10.449 35.9833 11.0985 36.8306 11.7658 37.7013C12.1298 38.1762 12.4991 38.658 12.9432 39.1083C13.2453 39.4151 13.7232 38.9439 13.4211 38.6371C12.9683 38.1778 12.6002 37.6858 12.2382 37.2019C11.6018 36.3511 10.9842 35.5256 9.95809 34.9475C9.50232 34.6904 9.03376 34.4557 8.56597 34.2214L8.5657 34.2213C8.20052 34.0384 7.83582 33.8557 7.47805 33.6628L7.47792 33.6628C7.0541 33.4361 6.63028 33.2094 6.2245 32.956C6.14334 32.9071 6.06104 32.8571 5.97875 32.8071C5.89646 32.7571 5.81417 32.7071 5.733 32.6582C4.92586 32.3559 4.79961 31.8003 5.34521 30.9912C5.77358 30.9823 5.77359 30.3155 5.34071 30.32ZM54.9821 34.8497C55.8434 34.7653 56.2582 34.2807 56.2357 33.3917C55.8073 33.3472 55.8028 32.676 56.2312 32.7249C57.5208 32.8627 57.4937 34.2274 56.5513 34.8853C55.7978 35.4093 54.8166 35.7367 53.8783 36.0497L53.8783 36.0498L53.8782 36.0498C53.4634 36.1882 53.057 36.3237 52.6824 36.4723C51.8576 36.7989 51.0328 37.1243 50.208 37.4498C49.3824 37.7756 48.5569 38.1013 47.7314 38.4282C47.3255 38.5882 47.1497 37.9392 47.551 37.7836C48.272 37.4993 48.994 37.2139 49.7161 36.9285C50.4392 36.6427 51.1623 36.3569 51.8843 36.0722C52.1931 35.95 52.5029 35.8278 52.8128 35.7056C53.123 35.5833 53.4331 35.461 53.7421 35.3387C53.9493 35.2566 54.1554 35.1755 54.3615 35.0945C54.568 35.0133 54.7745 34.9321 54.9821 34.8497ZM45.9999 38.7082C44.1872 40.3974 42.7578 42.38 41.7477 44.6293C41.5718 45.0161 42.1535 45.3583 42.3339 44.9672C43.3214 42.7712 44.7057 40.833 46.4823 39.1838C46.7935 38.886 46.3155 38.4148 45.9999 38.7082ZM15.5585 44.0915C15.4007 43.1935 15.067 42.38 14.5484 41.6243C14.3049 41.2687 14.8911 40.9353 15.1346 41.2865C15.6802 42.0822 16.0455 42.9668 16.2123 43.9137C16.2845 44.336 15.6306 44.5138 15.5585 44.0915Z" fill="#46A358"/>
<defs>
<clipPath id="clip0_1_12">
<rect width="55" height="48" fill="white" transform="translate(2.99734 44.9897)"/>
</clipPath>
</defs>
</svg>
