<svg xmlns="http://www.w3.org/2000/svg">
    <symbol id="icon-btn_right" width="10" height="12" viewBox="0 0 10 12">
        <path fill="none" d="M0.75 0.75C0.75 0.75 6 3.858 6 6C6 8.14125 0.75 11.25 0.75 11.25" stroke="#3D3D3D" stroke-width="1.5" stroke-linecap="round" stroke-linejoin="round"/>
    </symbol>
    <symbol id="icon-basket" viewBox="0 0 32 32">
        <path  d="M22.87 26.999h-9.685c-4.135 0-7.499-3.364-7.499-7.499v-7.686c0-3.844-1.916-7.401-5.125-9.517-0.576-0.38-0.735-1.155-0.355-1.731s1.155-0.736 1.731-0.355c1.832 1.208 3.318 2.801 4.381 4.635 0.23 0.257 2.081 2.22 5.117 2.22h14.392c3.926-0.073 7 3.867 5.973 7.657l-1.657 6.603c-0.838 3.341-3.829 5.674-7.273 5.674zM7.871 8.859c0.208 0.96 0.315 1.95 0.315 2.956v7.686c0 2.756 2.243 4.999 4.999 4.999h9.685c2.296 0 4.29-1.556 4.849-3.783l1.657-6.603c0.61-2.252-1.216-4.593-3.549-4.549h-14.392c-1.373 0-2.568-0.296-3.565-0.706zM12.56 30.436c0-0.863-0.699-1.562-1.562-1.562-2.073 0.083-2.071 3.043 0 3.124 0.863 0 1.562-0.7 1.562-1.562zM24.996 30.436c0-0.863-0.699-1.562-1.562-1.562-2.073 0.083-2.071 3.043 0 3.124 0.863 0 1.562-0.7 1.562-1.562zM27.077 13.314c0-0.69-0.56-1.25-1.25-1.25h-13.892c-1.658 0.066-1.657 2.434 0 2.5h13.892c0.69 0 1.25-0.56 1.25-1.25z"></path>
    </symbol>
    <symbol id="icon-logo" viewBox="0 0 137 32">
        <path fill="#46a358" style="fill: var(--color1, #46a358)" d="M15.68 0c-8.661 0-15.68 7.019-15.68 15.68 0 8.11 6.158 14.782 14.054 15.595-0.477-3.926-0.299-7.138 0.307-9.777-0.34-1.637-1.113-4.062-2.865-5.785 0 0 1.153 1.73 1.778 4.055 0 0.004 0.004 0.007 0.004 0.011 0.067 0.248 0.126 0.499 0.177 0.758 0.011 0.059 0.022 0.118 0.033 0.181 0.048 0.266 0.092 0.532 0.122 0.806-8.86-1.087-10.749-9.038-10.542-12.035 9.426 0.521 11.355 6.812 11.636 10.716 3.086-10.11 12.893-10.694 13.702-10.716 0.351 7.77-5.411 13.828-12.302 14.357 0.044-0.211 0.096-0.421 0.148-0.628 0.015-0.063 0.033-0.122 0.052-0.185 0.041-0.148 0.081-0.296 0.129-0.444 0.018-0.063 0.041-0.129 0.059-0.192 0.052-0.163 0.107-0.322 0.163-0.484 0.015-0.037 0.026-0.074 0.041-0.111 0.070-0.192 0.144-0.377 0.218-0.562 0.007-0.015 0.011-0.033 0.018-0.048 0 0 0 0 0.004 0 1.767-4.273 5.027-7.071 5.027-7.071-6.398 3.696-7.478 13.307-7.648 17.17 0.451 0.041 0.902 0.070 1.364 0.070 8.661 0 15.68-7.019 15.68-15.68s-7.019-15.68-15.68-15.68z"></path>
        <path fill="#46a358" style="fill: var(--color1, #46a358)" d="M42.701 9.824c2.074 0 3.767 0.891 4.864 2.517l-2.055 1.748c-0.736-1.028-1.626-1.56-2.861-1.56-1.9 0-3.083 1.249-3.083 3.153 0 1.937 1.249 3.238 3.257 3.238 1.079 0 1.937-0.377 2.484-1.009v-0.532h-2.639v-2.536h5.585v3.563c-0.532 0.943-1.286 1.697-2.262 2.277-0.976 0.566-2.074 0.858-3.29 0.858-3.393 0.052-6.199-2.588-6.151-5.859-0.052-3.253 2.758-5.91 6.151-5.859z"></path>
        <path fill="#46a358" style="fill: var(--color1, #46a358)" d="M56.647 21.332l-2.55-3.512h-1.216v3.512h-2.946v-11.303h4.436c2.517 0 4.369 1.541 4.369 3.889 0 1.386-0.669 2.536-1.782 3.22l2.979 4.195h-3.29zM52.877 15.251h1.508c0.821 0 1.353-0.532 1.353-1.334s-0.532-1.32-1.353-1.32h-1.508v2.654z"></path>
        <path fill="#46a358" style="fill: var(--color1, #46a358)" d="M61.105 10.028h7.844v2.654h-4.898v1.56h3.493v2.465h-3.493v1.97h5.105v2.654h-8.051v-11.303z"></path>
        <path fill="#46a358" style="fill: var(--color1, #46a358)" d="M70.989 10.028h7.844v2.654h-4.898v1.56h3.493v2.465h-3.493v1.97h5.105v2.654h-8.051v-11.303z"></path>
        <path fill="#46a358" style="fill: var(--color1, #46a358)" d="M90.898 10.028v11.511h-0.943l-6.132-5.944v5.737h-2.946v-11.511h0.943l6.132 5.859v-5.652h2.946z"></path>
        <path fill="#46a358" style="fill: var(--color1, #46a358)" d="M94.413 17.495c0.669 0.891 1.371 1.456 2.517 1.456 0.773 0 1.165-0.273 1.165-0.824 0-0.495-0.259-0.651-1.15-1.046l-1.164-0.514c-1.867-0.824-2.861-1.885-2.861-3.408 0-2.003 1.645-3.342 3.955-3.342 1.866 0 3.186 0.891 3.87 2.277l-1.97 1.508c-0.548-0.821-1.061-1.198-1.867-1.198-0.617 0-1.009 0.24-1.009 0.721 0 0.41 0.24 0.636 0.976 0.924l1.301 0.547c1.97 0.824 2.894 1.815 2.894 3.408 0 2.192-1.8 3.53-4.147 3.53-2.036 0-3.682-0.976-4.506-2.536l1.996-1.504z"></path>
        <path fill="#46a358" style="fill: var(--color1, #46a358)" d="M102.759 10.028h2.946v4.129h4.129v-4.129h2.946v11.303h-2.946v-4.521h-4.129v4.521h-2.946v-11.303z"></path>
        <path fill="#46a358" style="fill: var(--color1, #46a358)" d="M120.542 9.821c3.29-0.070 6.184 2.621 6.114 5.859 0.067 3.271-2.824 5.91-6.114 5.859-3.304 0.052-6.15-2.587-6.080-5.859-0.070-3.238 2.776-5.925 6.080-5.859zM120.557 12.527c-1.815 0-3.082 1.286-3.082 3.153 0 0.943 0.292 1.711 0.858 2.296 0.565 0.566 1.319 0.858 2.224 0.858 1.749 0 3.083-1.268 3.083-3.153 0.004-1.867-1.334-3.153-3.083-3.153z"></path>
        <path fill="#46a358" style="fill: var(--color1, #46a358)" d="M128.342 10.028h4.436c2.517 0 4.368 1.541 4.368 3.889 0 2.314-1.9 3.903-4.368 3.903h-1.49v3.512h-2.946v-11.303zM132.793 15.251c0.82 0 1.352-0.532 1.352-1.334s-0.532-1.32-1.352-1.32h-1.509v2.654h1.509z"></path>
    </symbol>
    <symbol id="icon-login_icon" viewBox="0 0 32 32">
        <path fill="none" stroke="#fff" style="stroke: var(--color2, #fff)" stroke-linejoin="round" stroke-linecap="round" stroke-miterlimit="4" stroke-width="2.4" d="M29.055 16.161h-16.055"></path>
        <path fill="none" stroke="#fff" style="stroke: var(--color2, #fff)" stroke-linejoin="round" stroke-linecap="round" stroke-miterlimit="4" stroke-width="2.4" d="M25.152 12.273l3.904 3.888-3.904 3.888"></path>
        <path fill="none" stroke="#fff" style="stroke: var(--color2, #fff)" stroke-linejoin="round" stroke-linecap="round" stroke-miterlimit="4" stroke-width="2.4" d="M21.813 10.173c-0.44-4.773-2.227-6.507-9.333-6.507-9.468 0-9.468 3.080-9.468 12.333s0 12.333 9.468 12.333c7.107 0 8.893-1.733 9.333-6.507"></path>
    </symbol>
    <symbol id="icon-search" viewBox="0 0 24 24">
        <path d="M16.041 15.856c-0.034 0.026-0.067 0.055-0.099 0.087s-0.060 0.064-0.087 0.099c-1.258 1.213-2.969 1.958-4.855 1.958-1.933 0-3.682-0.782-4.95-2.050s-2.050-3.017-2.050-4.95 0.782-3.682 2.050-4.95 3.017-2.050 4.95-2.050 3.682 0.782 4.95 2.050 2.050 3.017 2.050 4.95c0 1.886-0.745 3.597-1.959 4.856zM21.707 20.293l-3.675-3.675c1.231-1.54 1.968-3.493 1.968-5.618 0-2.485-1.008-4.736-2.636-6.364s-3.879-2.636-6.364-2.636-4.736 1.008-6.364 2.636-2.636 3.879-2.636 6.364 1.008 4.736 2.636 6.364 3.879 2.636 6.364 2.636c2.125 0 4.078-0.737 5.618-1.968l3.675 3.675c0.391 0.391 1.024 0.391 1.414 0s0.391-1.024 0-1.414z"></path>
    </symbol>
    <symbol id="icon-heart-o" viewBox="0 0 28 28">
        <path d="M26 9.312c0-4.391-2.969-5.313-5.469-5.313-2.328 0-4.953 2.516-5.766 3.484-0.375 0.453-1.156 0.453-1.531 0-0.812-0.969-3.437-3.484-5.766-3.484-2.5 0-5.469 0.922-5.469 5.313 0 2.859 2.891 5.516 2.922 5.547l9.078 8.75 9.063-8.734c0.047-0.047 2.938-2.703 2.938-5.563zM28 9.312c0 3.75-3.437 6.891-3.578 7.031l-9.734 9.375c-0.187 0.187-0.438 0.281-0.688 0.281s-0.5-0.094-0.688-0.281l-9.75-9.406c-0.125-0.109-3.563-3.25-3.563-7 0-4.578 2.797-7.313 7.469-7.313 2.734 0 5.297 2.156 6.531 3.375 1.234-1.219 3.797-3.375 6.531-3.375 4.672 0 7.469 2.734 7.469 7.313z"></path>
    </symbol>
</svg>

